<?xml version="1.0" standalone="no"?>
<!DOCTYPE svg PUBLIC "-//W3C//DTD SVG 20010904//EN"
 "http://www.w3.org/TR/2001/REC-SVG-20010904/DTD/svg10.dtd">
<svg version="1.0" xmlns="http://www.w3.org/2000/svg"
 width="873.000000pt" height="873.000000pt" viewBox="0 0 873.000000 873.000000"
 preserveAspectRatio="xMidYMid meet">

<g transform="translate(0.000000,873.000000) scale(0.100000,-0.100000)"
fill="#000000" stroke="none">
<path d="M6783 6095 c-156 -56 -162 -60 -206 -147 l-38 -78 -33 14 -33 14 9
-47 c4 -25 11 -54 14 -63 3 -10 -15 -65 -41 -123 -25 -58 -50 -117 -56 -131
-5 -15 -12 -25 -14 -22 -3 2 -13 49 -24 104 -65 326 -85 384 -134 384 -19 0
-328 -150 -354 -172 -18 -15 -16 -56 7 -123 24 -70 25 -98 4 -119 -23 -23 -42
-20 -76 14 -16 17 -31 30 -34 30 -2 0 -4 -80 -4 -178 l0 -177 -35 -90 c-38
-96 -118 -337 -136 -411 -19 -74 -21 -42 -4 52 29 163 36 218 44 384 8 162 -1
519 -14 551 -3 9 -18 21 -31 28 -22 9 -45 6 -137 -20 -62 -17 -120 -36 -130
-41 -9 -5 -40 -40 -68 -78 -41 -56 -56 -70 -77 -70 -15 0 -32 -4 -38 -8 -7 -4
-30 -64 -52 -135 -22 -70 -57 -156 -76 -191 -34 -60 -39 -65 -84 -75 -26 -6
-90 -22 -142 -36 -52 -14 -130 -35 -173 -47 -64 -17 -78 -24 -83 -44 -8 -29
-21 -40 -62 -49 l-32 -7 25 67 c20 55 22 66 9 61 -9 -3 -20 -6 -25 -6 -6 0 -8
-4 -4 -9 3 -5 -9 -48 -26 -96 -17 -47 -29 -89 -26 -92 3 -3 67 13 142 36 155
46 155 46 155 26 0 -8 5 -15 10 -15 17 0 11 -34 -24 -152 -19 -62 -32 -115
-30 -117 13 -14 37 39 74 162 26 86 39 148 36 163 -9 33 14 32 48 -2 44 -45
40 -67 -69 -314 -20 -47 -42 -90 -49 -97 -10 -11 -264 -93 -289 -93 -27 -1
-39 -21 -62 -109 -30 -109 -31 -129 -6 -79 39 77 64 109 105 133 24 14 54 25
67 25 33 0 85 -33 91 -58 3 -12 -8 -58 -24 -104 -69 -192 -69 -188 -22 -202
18 -5 23 -1 29 21 11 47 194 491 256 621 110 234 318 601 462 817 32 50 61 91
62 93 5 5 207 63 209 60 24 -42 29 -84 33 -318 5 -286 -1 -360 -63 -730 -43
-258 -46 -320 -19 -350 24 -27 26 -23 60 115 87 354 194 679 325 985 l58 135
-14 45 c-36 113 -39 133 -26 137 6 3 12 13 12 24 0 15 30 34 132 84 170 84
162 82 175 43 26 -73 97 -416 118 -572 4 -26 10 -44 14 -40 4 5 20 45 36 89
29 86 146 361 218 515 l44 95 114 39 c63 21 118 42 122 46 11 10 -3 60 -17 59
-6 -1 -52 -16 -103 -34z"/>
<path d="M6903 6003 c4 -40 0 -61 -30 -128 -138 -316 -203 -502 -302 -870 -98
-362 -97 -357 -78 -349 21 8 30 34 77 224 103 409 207 723 342 1030 20 46 23
62 15 98 -12 59 -31 55 -24 -5z"/>
<path d="M4695 5566 c-333 -97 -630 -193 -643 -209 -6 -7 -20 -48 -31 -91 -12
-44 -23 -81 -26 -84 -13 -13 -15 33 -3 81 l14 54 -60 -20 c-53 -16 -69 -17
-122 -8 -134 24 -298 3 -514 -66 -63 -20 -137 -37 -165 -38 -27 -2 -86 -15
-130 -29 -44 -15 -232 -77 -418 -138 -204 -66 -348 -119 -363 -132 -21 -17
-34 -56 -76 -215 -40 -155 -48 -199 -39 -217 18 -41 52 -40 164 5 56 23 105
41 108 41 4 0 -19 -66 -51 -147 -108 -281 -194 -538 -246 -741 -18 -71 -19
-72 -63 -87 -64 -22 -72 -20 -66 13 l6 27 -18 -25 c-10 -13 -25 -30 -33 -37
-82 -70 -75 -57 -124 -253 -26 -102 -46 -194 -46 -206 0 -26 30 -54 58 -54 12
0 118 36 234 81 266 101 348 128 521 173 76 20 147 40 157 46 10 5 26 33 35
61 17 51 39 81 100 141 l30 30 -43 -22 c-24 -12 -46 -19 -49 -17 -2 3 2 29 11
58 8 30 17 81 21 114 15 140 148 605 249 874 54 143 63 176 52 185 -23 18 -28
65 -13 115 8 25 30 100 48 166 18 66 33 121 34 123 14 19 261 86 392 107 164
25 291 -3 346 -77 55 -74 73 -213 43 -326 -20 -73 -70 -177 -112 -231 l-36
-46 47 50 c26 27 60 72 77 100 16 27 27 42 24 32 -5 -15 -109 -345 -122 -386
-3 -8 -7 -12 -9 -9 -4 4 19 90 42 157 3 9 -12 0 -33 -20 -73 -66 -71 -65 -103
-35 -28 27 -30 27 -55 11 l-26 -17 58 -63 c32 -34 78 -87 102 -118 24 -31 45
-55 46 -54 1 1 16 54 34 117 44 157 129 409 189 560 27 69 48 126 46 128 -9
10 -77 -31 -84 -50 -5 -13 -16 -39 -24 -58 l-16 -35 6 48 c4 36 2 51 -8 57
-11 7 -9 26 10 106 13 54 34 132 47 174 l24 77 52 15 c29 9 134 41 233 73 99
31 263 81 365 111 102 30 193 57 203 60 16 5 18 2 12 -15 -5 -16 -2 -21 10
-21 20 0 18 -10 -30 -177 -31 -109 -31 -138 -1 -90 17 27 86 274 86 309 0 31
-29 58 -61 57 -13 0 -136 -33 -274 -73z m-1578 -454 c14 -9 -75 -333 -99 -361
-9 -10 -62 -29 -132 -46 -102 -26 -115 -31 -99 -42 16 -13 16 -15 -1 -61 -100
-264 -307 -968 -289 -985 2 -3 54 10 116 29 103 31 157 41 157 29 0 -2 -9 -28
-19 -57 -11 -29 -32 -98 -47 -153 -25 -95 -48 -155 -60 -155 -3 0 -80 -20
-172 -45 -92 -24 -285 -89 -430 -143 -144 -55 -264 -96 -267 -93 -2 4 18 90
44 191 l48 184 108 36 c77 26 111 42 116 56 4 10 28 94 53 185 63 228 163 521
265 778 23 57 40 105 38 107 -2 2 -70 -23 -152 -56 -83 -34 -153 -56 -158 -51
-9 9 76 358 91 373 14 14 822 280 872 287 3 0 10 -3 17 -7z m-42 -409 c-81
-196 -181 -501 -255 -781 -43 -160 -44 -162 -74 -170 -22 -6 -32 -5 -34 4 -9
35 122 483 203 702 30 80 53 148 50 150 -2 3 -25 -1 -50 -8 -25 -7 -49 -10
-52 -6 -4 3 1 21 9 40 15 30 24 35 90 51 40 10 80 21 88 26 24 13 33 10 25 -8z"/>
<path d="M2201 3794 c0 -11 3 -14 6 -6 3 7 2 16 -1 19 -3 4 -6 -2 -5 -13z"/>
<path d="M2181 3724 c0 -11 3 -14 6 -6 3 7 2 16 -1 19 -3 4 -6 -2 -5 -13z"/>
<path d="M2166 3674 c-4 -14 -5 -28 -3 -31 3 -2 8 8 11 23 4 14 5 28 3 31 -3
2 -8 -8 -11 -23z"/>
<path d="M2151 3614 c0 -11 3 -14 6 -6 3 7 2 16 -1 19 -3 4 -6 -2 -5 -13z"/>
<path d="M2131 3544 c-7 -25 -10 -48 -8 -51 3 -2 10 17 16 43 7 25 10 48 8 51
-3 2 -10 -17 -16 -43z"/>
<path d="M1881 3364 c0 -11 3 -14 6 -6 3 7 2 16 -1 19 -3 4 -6 -2 -5 -13z"/>
<path d="M1871 3324 c0 -11 3 -14 6 -6 3 7 2 16 -1 19 -3 4 -6 -2 -5 -13z"/>
<path d="M1861 3284 c0 -11 3 -14 6 -6 3 7 2 16 -1 19 -3 4 -6 -2 -5 -13z"/>
<path d="M1851 3244 c0 -11 3 -14 6 -6 3 7 2 16 -1 19 -3 4 -6 -2 -5 -13z"/>
<path d="M1841 3204 c0 -11 3 -14 6 -6 3 7 2 16 -1 19 -3 4 -6 -2 -5 -13z"/>
<path d="M1831 3164 c0 -11 3 -14 6 -6 3 7 2 16 -1 19 -3 4 -6 -2 -5 -13z"/>
<path d="M1815 3110 c-4 -17 -5 -34 -2 -36 2 -3 7 10 11 27 8 42 0 50 -9 9z"/>
<path d="M5353 5368 c-15 -18 -203 -396 -202 -405 0 -5 43 78 96 182 52 105
102 198 111 208 8 9 13 19 10 22 -3 3 -10 0 -15 -7z"/>
<path d="M4795 5279 c-207 -56 -405 -112 -405 -115 0 -2 8 -8 19 -13 13 -8 38
-5 87 10 38 11 138 37 222 59 167 43 172 45 172 66 0 17 -7 17 -95 -7z"/>
<path d="M5258 5091 c-48 -96 -86 -177 -83 -179 2 -3 25 1 49 8 25 7 56 10 70
6 17 -4 26 -1 30 10 11 30 27 208 24 269 l-3 60 -87 -174z m33 -36 c-9 -46
-22 -65 -49 -65 -8 0 -1 22 19 61 16 34 32 59 35 57 2 -3 0 -26 -5 -53z"/>
<path d="M6066 5195 c-3 -9 0 -15 9 -15 16 0 20 16 6 24 -5 3 -11 -1 -15 -9z"/>
<path d="M6062 5073 c-113 -289 -192 -593 -156 -593 19 0 31 27 39 90 14 105
77 338 104 379 15 23 30 -138 33 -366 l3 -152 25 5 c52 12 60 16 60 30 0 10
-6 13 -19 9 -17 -5 -18 5 -24 157 -5 141 -39 454 -50 465 -3 2 -9 -9 -15 -24z"/>
<path d="M4120 5067 c-55 -21 -70 -32 -70 -53 0 -18 119 28 126 49 3 10 4 20
2 22 -1 1 -28 -7 -58 -18z"/>
<path d="M3525 4966 c-22 -7 -62 -24 -89 -38 -43 -22 -47 -26 -29 -32 12 -4
40 2 69 14 69 30 163 37 204 16 45 -22 49 -13 12 24 -26 25 -38 30 -79 29 -26
0 -66 -6 -88 -13z"/>
<path d="M3641 4856 c-23 -46 -58 -74 -46 -36 7 23 -3 25 -56 10 -31 -9 -40
-18 -58 -62 -32 -78 -38 -48 -6 33 15 38 25 72 22 75 -2 3 -16 -1 -31 -7 -20
-9 -23 -15 -15 -25 8 -10 2 -36 -27 -104 -20 -50 -35 -93 -32 -95 8 -8 131 35
184 66 63 36 124 101 124 132 0 13 -8 32 -19 41 -18 16 -20 15 -40 -28z"/>
<path d="M3157 4799 c-18 -11 -24 -39 -7 -39 10 0 34 39 28 45 -2 2 -11 -1
-21 -6z"/>
<path d="M3891 4717 c-37 -64 -118 -144 -200 -198 -57 -37 -70 -50 -57 -55 10
-4 29 0 44 7 46 24 186 171 216 227 33 64 31 78 -3 19z"/>
<path d="M4428 4692 c-141 -41 -182 -61 -164 -80 3 -3 82 17 175 43 131 38
171 52 174 67 7 25 -2 23 -185 -30z"/>
<path d="M5245 4725 c-5 -2 -56 -17 -112 -34 -90 -28 -105 -35 -118 -62 l-16
-30 23 14 c19 13 77 32 221 73 22 7 44 44 25 43 -7 0 -17 -2 -23 -4z"/>
<path d="M6303 4632 c-81 -41 -134 -73 -136 -84 -3 -10 0 -18 6 -18 27 1 272
137 275 153 2 9 0 17 -5 16 -4 0 -67 -30 -140 -67z"/>
<path d="M5205 4641 c-13 -5 -30 -40 -56 -112 -21 -57 -51 -143 -68 -190 -17
-48 -35 -108 -40 -133 -8 -45 -8 -46 13 -40 53 17 66 25 66 42 0 10 4 22 9 28
7 7 121 392 121 409 0 7 -21 5 -45 -4z"/>
<path d="M5010 4527 c-37 -83 -100 -264 -100 -289 0 -47 31 9 70 128 23 69 50
145 61 170 22 53 22 54 8 54 -5 0 -23 -28 -39 -63z"/>
<path d="M4285 4570 c-11 -18 -105 -362 -105 -384 0 -11 19 -6 34 10 9 8 16
25 16 38 0 12 19 95 43 184 31 114 40 162 31 162 -7 0 -16 -5 -19 -10z"/>
<path d="M5735 4464 c-132 -69 -145 -78 -145 -100 0 -11 36 3 128 52 144 75
145 76 140 97 -2 11 -32 -1 -123 -49z"/>
<path d="M5319 4385 c-88 -44 -128 -70 -132 -84 -3 -12 -2 -21 1 -21 4 1 66
31 137 68 82 42 131 74 133 85 2 9 0 17 -5 16 -4 0 -65 -29 -134 -64z"/>
<path d="M2175 4353 c-33 -15 -61 -27 -62 -28 -2 -1 6 -27 17 -58 11 -31 20
-76 20 -99 1 -41 3 -38 45 66 54 133 59 146 48 145 -4 0 -35 -12 -68 -26z"/>
<path d="M3270 4367 c0 -7 13 -20 29 -30 36 -21 123 -111 191 -197 91 -116 99
-125 99 -115 1 17 -152 214 -222 288 -61 63 -97 83 -97 54z"/>
<path d="M3262 4213 c-44 -176 -92 -389 -92 -408 1 -17 5 -15 30 14 16 19 26
40 23 50 -3 11 -2 12 4 3 7 -9 15 -6 33 13 47 50 117 53 189 7 21 -14 20 -11
-10 39 -19 30 -62 89 -97 133 l-63 78 12 52 c6 28 16 59 21 70 9 17 -2 35 -23
36 -3 0 -15 -39 -27 -87z"/>
<path d="M4748 4214 c-110 -55 -148 -83 -148 -109 0 -9 256 123 270 140 31 37
-5 28 -122 -31z"/>
<path d="M5500 4244 c-25 -14 -47 -28 -50 -31 -4 -5 112 6 117 11 5 4 -10 46
-16 46 -3 0 -26 -12 -51 -26z"/>
<path d="M3383 4200 c25 -28 71 -89 103 -135 32 -47 61 -85 66 -85 5 0 3 10
-3 23 -27 50 -190 247 -205 247 -3 0 14 -23 39 -50z"/>
<path d="M3947 4140 c-15 -17 -27 -39 -27 -49 0 -9 -6 -25 -13 -35 -11 -14
-19 -16 -55 -8 -45 11 -115 -1 -180 -30 -34 -15 -102 -90 -129 -142 -8 -16
-18 -55 -20 -86 -7 -78 15 -141 83 -230 81 -107 79 -97 23 -165 -58 -71 -130
-205 -155 -290 -19 -69 -22 -176 -4 -220 59 -150 234 -179 392 -65 97 69 173
207 185 336 l6 62 44 -31 c37 -26 53 -31 103 -32 50 0 63 4 87 26 20 19 40 27
71 28 79 2 147 45 204 130 17 25 32 47 34 49 1 2 13 -8 28 -21 46 -43 163 -62
220 -36 31 15 51 60 41 96 -4 16 -9 54 -12 86 l-5 57 49 0 c26 0 57 3 69 6 17
4 22 -1 33 -35 16 -54 70 -107 123 -122 125 -33 270 53 365 216 59 100 80 166
65 199 -23 50 -103 54 -133 7 -8 -12 -8 -11 -3 8 12 43 6 128 -10 160 -21 40
-63 61 -121 61 -62 0 -113 -28 -173 -95 l-50 -56 -28 26 c-52 49 -108 42 -182
-21 l-41 -35 -33 17 c-18 10 -54 18 -79 18 -57 1 -85 -20 -99 -76 -6 -21 -12
-38 -14 -38 -2 0 -12 12 -21 27 -17 26 -17 27 14 52 40 33 50 84 26 134 -22
48 -82 77 -156 77 -46 0 -59 4 -79 25 -53 57 -180 49 -232 -13 l-23 -29 -35
40 c-29 32 -43 40 -81 44 -42 5 -48 3 -72 -27z m100 -35 c24 -17 48 -78 39
-100 -6 -17 -2 -18 42 -9 23 5 34 16 48 46 19 42 58 69 102 70 47 1 72 -12 78
-40 5 -27 6 -27 79 -24 52 3 82 -1 104 -12 55 -29 63 -73 21 -111 -19 -18 -21
-18 -43 2 -44 40 -154 58 -189 31 -19 -15 -59 -131 -81 -238 -42 -199 -49
-368 -16 -439 11 -25 17 -51 15 -58 -7 -17 -58 -17 -101 1 -57 24 -70 62 -70
208 1 124 0 126 -20 116 -15 -8 -87 -55 -113 -73 -1 -1 9 -44 24 -94 23 -79
26 -106 22 -194 -3 -89 -8 -111 -35 -169 -62 -131 -170 -212 -284 -213 -62 0
-94 17 -133 69 -18 23 -21 42 -21 120 0 91 1 96 48 190 27 54 78 134 114 178
63 78 64 81 52 111 -7 17 -39 66 -71 108 -32 42 -62 88 -68 103 -14 38 -12
131 3 169 49 115 204 182 294 128 39 -24 47 -14 93 112 11 30 34 35 67 12z
m1320 -111 c23 -23 25 -31 20 -83 -9 -103 -64 -184 -158 -232 -36 -18 -38 -21
-27 -44 15 -34 52 -42 95 -21 46 22 136 108 170 162 16 24 34 44 41 44 49 0
-71 -219 -159 -289 -143 -115 -289 -60 -289 108 0 230 200 462 307 355z m-359
-80 c26 -18 28 -56 10 -147 -11 -54 -11 -60 6 -72 24 -18 13 -33 -41 -57 -72
-32 -135 -3 -117 54 14 46 -15 5 -32 -45 -17 -49 -22 -144 -12 -232 l3 -30
-67 0 c-60 0 -71 3 -95 27 -24 24 -28 38 -31 98 -4 65 -6 71 -25 68 -17 -2
-24 -14 -33 -60 -31 -156 -152 -278 -251 -253 -100 25 -124 229 -47 402 28 64
65 104 90 97 14 -4 23 3 32 24 13 30 48 52 83 52 39 0 86 -61 100 -128 7 -34
18 -62 24 -62 23 0 32 18 44 80 26 138 27 140 71 140 26 0 48 -7 65 -23 25
-21 26 -26 17 -62 -23 -91 -21 -99 7 -39 31 67 89 137 136 166 36 22 35 22 63
2z m-545 -13 c5 -5 -5 -11 -22 -14 -16 -3 -46 -20 -66 -38 -19 -17 -38 -29
-41 -26 -8 8 16 80 30 90 13 9 87 0 99 -12z"/>
<path d="M4083 3905 c-17 -7 -43 -31 -56 -52 -29 -45 -96 -108 -126 -118 -14
-4 -31 0 -47 9 -19 13 -23 22 -18 43 6 24 5 26 -17 20 -13 -4 -35 -7 -48 -7
-20 0 -22 -3 -17 -27 5 -21 82 -145 131 -211 1 -1 44 17 94 42 50 24 96 46
102 48 6 2 19 54 29 115 10 61 21 120 25 132 8 25 -5 27 -52 6z m-27 -131 c-3
-9 -6 -29 -6 -45 0 -26 -7 -33 -71 -64 -67 -33 -73 -34 -85 -17 -18 23 -17 32
4 32 25 0 106 53 128 84 21 28 39 35 30 10z"/>
<path d="M3733 3268 c-56 -74 -89 -134 -107 -197 -17 -58 -22 -151 -7 -151 40
0 130 107 151 178 16 54 25 222 13 222 -6 0 -29 -24 -50 -52z m-33 -198 c-17
-32 -22 -18 -8 21 8 22 13 28 16 17 2 -9 -2 -27 -8 -38z"/>
<path d="M5224 3895 c-20 -31 -44 -110 -44 -148 0 -26 2 -28 16 -17 40 34 81
140 68 175 -9 22 -21 19 -40 -10z"/>
<path d="M4454 3745 c-10 -24 4 -63 26 -75 18 -10 20 -8 20 20 0 54 -32 92
-46 55z"/>
<path d="M4358 3654 c-46 -170 -21 -288 48 -224 24 23 74 109 74 127 0 4 -14
16 -30 25 -27 15 -40 37 -67 107 -8 22 -11 19 -25 -35z m52 -123 c0 -6 -4 -13
-10 -16 -5 -3 -10 1 -10 9 0 9 5 16 10 16 6 0 10 -4 10 -9z"/>
<path d="M2990 3777 c-89 -45 -126 -69 -128 -83 -2 -16 17 -10 132 46 82 39
136 72 139 83 3 9 0 17 -6 17 -7 0 -68 -29 -137 -63z"/>
</g>
</svg>
